<!--?xml version="1.0" standalone="no"?-->
              <svg id="sw-js-blob-svg" viewBox="0 0 100 100" xmlns="http://www.w3.org/2000/svg" version="1.1">
                    <defs> 
                        <linearGradient id="sw-gradient" x1="0" x2="1" y1="1" y2="0">
                            <stop id="stop1" stop-color="rgba(248, 117, 55, 1)" offset="0%"></stop>
                            <stop id="stop2" stop-color="rgba(251, 168, 31, 1)" offset="100%"></stop>
                        </linearGradient>
                    </defs>
                <path fill="url(#sw-gradient)" d="M22,-27.2C28.1,-21.1,32.3,-13.8,34.9,-5.2C37.5,3.3,38.4,13,34.3,19.4C30.1,25.8,20.8,28.8,12.4,30.1C4,31.5,-3.6,31.1,-11.7,29.4C-19.9,27.7,-28.6,24.6,-34.1,18.2C-39.6,11.7,-41.8,2,-40.3,-7.1C-38.7,-16.3,-33.3,-24.7,-25.9,-30.7C-18.6,-36.6,-9.3,-40,-0.7,-39.2C7.9,-38.4,15.9,-33.4,22,-27.2Z" width="100%" height="100%" transform="translate(50 50)" stroke-width="0" style="transition: all 0.3s ease 0s;"></path>
              </svg>